<?xml version="1.0" encoding="utf-8"?>
<!-- Generated by IcoMoon.io -->
<!DOCTYPE svg PUBLIC "-//W3C//DTD SVG 1.1//EN" "http://www.w3.org/Graphics/SVG/1.1/DTD/svg11.dtd">
<svg version="1.1" xmlns="http://www.w3.org/2000/svg" xmlns:xlink="http://www.w3.org/1999/xlink" width="39" height="42" viewBox="0 0 39 42">
<path fill="#444444" d="M6 31.5q0-0.609-0.445-1.055t-1.055-0.445q-0.633 0-1.066 0.445t-0.434 1.055q0 0.633 0.434 1.066t1.066 0.434q0.609 0 1.055-0.434t0.445-1.066zM9.75 19.5v15q0 0.609-0.445 1.055t-1.055 0.445h-6.75q-0.609 0-1.055-0.445t-0.445-1.055v-15q0-0.609 0.445-1.055t1.055-0.445h6.75q0.609 0 1.055 0.445t0.445 1.055zM37.5 19.5q0 2.016-1.289 3.492 0.352 1.031 0.352 1.781 0.070 1.781-1.008 3.211 0.398 1.313 0 2.742-0.352 1.336-1.266 2.203 0.211 2.625-1.148 4.242-1.5 1.781-4.617 1.828h-3.023q-1.547 0-3.375-0.363t-2.848-0.68-2.824-0.926q-2.883-1.008-3.703-1.031-0.609-0.023-1.055-0.457t-0.445-1.043v-15.023q0-0.586 0.422-1.020t1.008-0.48q0.562-0.047 1.781-1.383t2.367-2.836q1.594-2.039 2.367-2.812 0.422-0.422 0.727-1.125t0.41-1.137 0.316-1.418q0.164-0.914 0.293-1.43t0.457-1.219 0.797-1.172q0.445-0.445 1.055-0.445 1.078 0 1.934 0.246t1.406 0.609 0.937 0.949 0.562 1.055 0.281 1.172 0.117 1.055 0.012 0.914q0 0.891-0.223 1.781t-0.445 1.406-0.645 1.313q-0.070 0.141-0.234 0.422t-0.258 0.516-0.187 0.562h6.492q1.828 0 3.164 1.336t1.336 3.164z"></path>
</svg>
