<?xml version="1.0" encoding="utf-8"?>
<!-- Generated by IcoMoon.io -->
<!DOCTYPE svg PUBLIC "-//W3C//DTD SVG 1.1//EN" "http://www.w3.org/Graphics/SVG/1.1/DTD/svg11.dtd">
<svg version="1.1" xmlns="http://www.w3.org/2000/svg" xmlns:xlink="http://www.w3.org/1999/xlink" width="42" height="42" viewBox="0 0 42 42">
<path fill="#444444" d="M39 22.5q-3.562-5.531-8.93-8.273 1.43 2.438 1.43 5.273 0 4.336-3.082 7.418t-7.418 3.082-7.418-3.082-3.082-7.418q0-2.836 1.43-5.273-5.367 2.742-8.93 8.273 3.117 4.805 7.816 7.652t10.184 2.848 10.184-2.848 7.816-7.652zM22.125 13.5q0-0.469-0.328-0.797t-0.797-0.328q-2.93 0-5.027 2.098t-2.098 5.027q0 0.469 0.328 0.797t0.797 0.328 0.797-0.328 0.328-0.797q0-2.016 1.43-3.445t3.445-1.43q0.469 0 0.797-0.328t0.328-0.797zM42 22.5q0 0.797-0.469 1.617-3.281 5.391-8.824 8.637t-11.707 3.246-11.707-3.258-8.824-8.625q-0.469-0.82-0.469-1.617t0.469-1.617q3.281-5.367 8.824-8.625t11.707-3.258 11.707 3.258 8.824 8.625q0.469 0.82 0.469 1.617z"></path>
</svg>
