<?xml version="1.0" encoding="utf-8"?>
<!-- Generated by IcoMoon.io -->
<!DOCTYPE svg PUBLIC "-//W3C//DTD SVG 1.1//EN" "http://www.w3.org/Graphics/SVG/1.1/DTD/svg11.dtd">
<svg version="1.1" xmlns="http://www.w3.org/2000/svg" xmlns:xlink="http://www.w3.org/1999/xlink" width="39" height="42" viewBox="0 0 39 42">
<path fill="#444444" d="M17.227 18.656q0 0.844 0.75 1.652t1.816 1.594 2.121 1.723 1.805 2.438 0.75 3.328q0 2.109-1.125 4.055-1.688 2.859-4.945 4.207t-6.984 1.348q-3.094 0-5.777-0.973t-4.020-3.223q-0.867-1.406-0.867-3.070 0-1.898 1.043-3.516t2.777-2.695q3.070-1.922 9.469-2.344-0.75-0.984-1.113-1.734t-0.363-1.711q0-0.844 0.492-1.992-1.078 0.094-1.594 0.094-3.469 0-5.848-2.262t-2.379-5.73q0-1.922 0.844-3.727t2.32-3.070q1.805-1.547 4.277-2.297t5.098-0.75h9.797l-3.234 2.063h-3.070q1.734 1.477 2.625 3.117t0.891 3.75q0 1.688-0.574 3.035t-1.383 2.18-1.629 1.523-1.395 1.441-0.574 1.547zM13.805 16.406q0.891 0 1.828-0.387t1.547-1.020q1.242-1.336 1.242-3.727 0-1.359-0.398-2.93t-1.137-3.035-1.98-2.426-2.742-0.961q-0.984 0-1.934 0.457t-1.535 1.23q-1.102 1.383-1.102 3.75 0 1.078 0.234 2.285t0.738 2.414 1.219 2.168 1.758 1.57 2.262 0.609zM13.852 36.867q1.359 0 2.613-0.305t2.32-0.914 1.711-1.711 0.645-2.555q0-0.586-0.164-1.148t-0.34-0.984-0.633-0.973-0.691-0.82-0.902-0.809-0.855-0.68-0.973-0.703-0.855-0.609q-0.375-0.047-1.125-0.047-1.242 0-2.461 0.164t-2.52 0.586-2.273 1.078-1.605 1.746-0.633 2.473q0 1.641 0.82 2.895t2.145 1.945 2.789 1.031 2.988 0.34zM32.836 16.336h4.992v2.531h-4.992v5.133h-2.461v-5.133h-4.969v-2.531h4.969v-5.086h2.461v5.086z"></path>
</svg>
